<svg xmlns="http://www.w3.org/2000/svg" width="1100" height="435" viewBox="0 0 1100 435">
<rect width="100%" height="100%" fill="#ffffff"/>
<text x="180" y="28" font-family="Arial, sans-serif" font-size="20" font-weight="700" fill="#172033">Sequential wrapper: clean backpressure hold</text>
<line x1="180" y1="40" x2="1060" y2="40" stroke="#c8d1df" stroke-width="1"/>
<text x="24" y="75" font-family="Menlo, Consolas, monospace" font-size="13" fill="#273449">clk</text>
<line x1="180" y1="70" x2="1060" y2="70" stroke="#e6ebf2" stroke-width="1"/>
<line x1="180.0" y1="81.0" x2="226.3" y2="81.0" stroke="#1f6feb" stroke-width="2.2"/>
<line x1="180.0" y1="59.0" x2="180.0" y2="81.0" stroke="#1f6feb" stroke-width="1"/>
<line x1="226.3" y1="59.0" x2="272.6" y2="59.0" stroke="#1f6feb" stroke-width="2.2"/>
<line x1="226.3" y1="59.0" x2="226.3" y2="81.0" stroke="#1f6feb" stroke-width="1"/>
<line x1="272.6" y1="81.0" x2="318.9" y2="81.0" stroke="#1f6feb" stroke-width="2.2"/>
<line x1="272.6" y1="59.0" x2="272.6" y2="81.0" stroke="#1f6feb" stroke-width="1"/>
<line x1="318.9" y1="59.0" x2="365.3" y2="59.0" stroke="#1f6feb" stroke-width="2.2"/>
<line x1="318.9" y1="59.0" x2="318.9" y2="81.0" stroke="#1f6feb" stroke-width="1"/>
<line x1="365.3" y1="81.0" x2="411.6" y2="81.0" stroke="#1f6feb" stroke-width="2.2"/>
<line x1="365.3" y1="59.0" x2="365.3" y2="81.0" stroke="#1f6feb" stroke-width="1"/>
<line x1="411.6" y1="59.0" x2="457.9" y2="59.0" stroke="#1f6feb" stroke-width="2.2"/>
<line x1="411.6" y1="59.0" x2="411.6" y2="81.0" stroke="#1f6feb" stroke-width="1"/>
<line x1="457.9" y1="81.0" x2="504.2" y2="81.0" stroke="#1f6feb" stroke-width="2.2"/>
<line x1="457.9" y1="59.0" x2="457.9" y2="81.0" stroke="#1f6feb" stroke-width="1"/>
<line x1="504.2" y1="59.0" x2="550.5" y2="59.0" stroke="#1f6feb" stroke-width="2.2"/>
<line x1="504.2" y1="59.0" x2="504.2" y2="81.0" stroke="#1f6feb" stroke-width="1"/>
<line x1="550.5" y1="81.0" x2="596.8" y2="81.0" stroke="#1f6feb" stroke-width="2.2"/>
<line x1="550.5" y1="59.0" x2="550.5" y2="81.0" stroke="#1f6feb" stroke-width="1"/>
<line x1="596.8" y1="59.0" x2="643.2" y2="59.0" stroke="#1f6feb" stroke-width="2.2"/>
<line x1="596.8" y1="59.0" x2="596.8" y2="81.0" stroke="#1f6feb" stroke-width="1"/>
<line x1="643.2" y1="81.0" x2="689.5" y2="81.0" stroke="#1f6feb" stroke-width="2.2"/>
<line x1="643.2" y1="59.0" x2="643.2" y2="81.0" stroke="#1f6feb" stroke-width="1"/>
<line x1="689.5" y1="59.0" x2="735.8" y2="59.0" stroke="#1f6feb" stroke-width="2.2"/>
<line x1="689.5" y1="59.0" x2="689.5" y2="81.0" stroke="#1f6feb" stroke-width="1"/>
<line x1="735.8" y1="81.0" x2="782.1" y2="81.0" stroke="#1f6feb" stroke-width="2.2"/>
<line x1="735.8" y1="59.0" x2="735.8" y2="81.0" stroke="#1f6feb" stroke-width="1"/>
<line x1="782.1" y1="59.0" x2="828.4" y2="59.0" stroke="#1f6feb" stroke-width="2.2"/>
<line x1="782.1" y1="59.0" x2="782.1" y2="81.0" stroke="#1f6feb" stroke-width="1"/>
<line x1="828.4" y1="81.0" x2="874.7" y2="81.0" stroke="#1f6feb" stroke-width="2.2"/>
<line x1="828.4" y1="59.0" x2="828.4" y2="81.0" stroke="#1f6feb" stroke-width="1"/>
<line x1="874.7" y1="59.0" x2="921.1" y2="59.0" stroke="#1f6feb" stroke-width="2.2"/>
<line x1="874.7" y1="59.0" x2="874.7" y2="81.0" stroke="#1f6feb" stroke-width="1"/>
<line x1="921.1" y1="81.0" x2="967.4" y2="81.0" stroke="#1f6feb" stroke-width="2.2"/>
<line x1="921.1" y1="59.0" x2="921.1" y2="81.0" stroke="#1f6feb" stroke-width="1"/>
<line x1="967.4" y1="59.0" x2="1013.7" y2="59.0" stroke="#1f6feb" stroke-width="2.2"/>
<line x1="967.4" y1="59.0" x2="967.4" y2="81.0" stroke="#1f6feb" stroke-width="1"/>
<line x1="1013.7" y1="81.0" x2="1060.0" y2="81.0" stroke="#1f6feb" stroke-width="2.2"/>
<line x1="1013.7" y1="59.0" x2="1013.7" y2="81.0" stroke="#1f6feb" stroke-width="1"/>
<text x="24" y="117" font-family="Menlo, Consolas, monospace" font-size="13" fill="#273449">rst_n</text>
<line x1="180" y1="112" x2="1060" y2="112" stroke="#e6ebf2" stroke-width="1"/>
<line x1="180.0" y1="123.0" x2="411.6" y2="123.0" stroke="#1f6feb" stroke-width="2.2"/>
<line x1="180.0" y1="101.0" x2="180.0" y2="123.0" stroke="#1f6feb" stroke-width="1"/>
<line x1="411.6" y1="101.0" x2="1060.0" y2="101.0" stroke="#1f6feb" stroke-width="2.2"/>
<line x1="411.6" y1="101.0" x2="411.6" y2="123.0" stroke="#1f6feb" stroke-width="1"/>
<text x="24" y="159" font-family="Menlo, Consolas, monospace" font-size="13" fill="#273449">in_valid</text>
<line x1="180" y1="154" x2="1060" y2="154" stroke="#e6ebf2" stroke-width="1"/>
<line x1="180.0" y1="165.0" x2="504.2" y2="165.0" stroke="#1f6feb" stroke-width="2.2"/>
<line x1="180.0" y1="143.0" x2="180.0" y2="165.0" stroke="#1f6feb" stroke-width="1"/>
<line x1="504.2" y1="143.0" x2="596.8" y2="143.0" stroke="#1f6feb" stroke-width="2.2"/>
<line x1="504.2" y1="143.0" x2="504.2" y2="165.0" stroke="#1f6feb" stroke-width="1"/>
<line x1="596.8" y1="165.0" x2="1060.0" y2="165.0" stroke="#1f6feb" stroke-width="2.2"/>
<line x1="596.8" y1="143.0" x2="596.8" y2="165.0" stroke="#1f6feb" stroke-width="1"/>
<text x="24" y="201" font-family="Menlo, Consolas, monospace" font-size="13" fill="#273449">in_ready</text>
<line x1="180" y1="196" x2="1060" y2="196" stroke="#e6ebf2" stroke-width="1"/>
<line x1="180.0" y1="185.0" x2="698.7" y2="185.0" stroke="#1f6feb" stroke-width="2.2"/>
<line x1="180.0" y1="185.0" x2="180.0" y2="207.0" stroke="#1f6feb" stroke-width="1"/>
<line x1="698.7" y1="207.0" x2="874.7" y2="207.0" stroke="#1f6feb" stroke-width="2.2"/>
<line x1="698.7" y1="185.0" x2="698.7" y2="207.0" stroke="#1f6feb" stroke-width="1"/>
<line x1="874.7" y1="185.0" x2="1060.0" y2="185.0" stroke="#1f6feb" stroke-width="2.2"/>
<line x1="874.7" y1="185.0" x2="874.7" y2="207.0" stroke="#1f6feb" stroke-width="1"/>
<text x="24" y="243" font-family="Menlo, Consolas, monospace" font-size="13" fill="#273449">out_valid</text>
<line x1="180" y1="238" x2="1060" y2="238" stroke="#e6ebf2" stroke-width="1"/>
<line x1="180.0" y1="249.0" x2="226.3" y2="249.0" stroke="#8a93a5" stroke-width="2.2"/>
<line x1="180.0" y1="227.0" x2="180.0" y2="249.0" stroke="#8a93a5" stroke-width="1"/>
<line x1="226.3" y1="249.0" x2="689.5" y2="249.0" stroke="#1f6feb" stroke-width="2.2"/>
<line x1="226.3" y1="227.0" x2="226.3" y2="249.0" stroke="#1f6feb" stroke-width="1"/>
<line x1="689.5" y1="227.0" x2="967.4" y2="227.0" stroke="#1f6feb" stroke-width="2.2"/>
<line x1="689.5" y1="227.0" x2="689.5" y2="249.0" stroke="#1f6feb" stroke-width="1"/>
<line x1="967.4" y1="249.0" x2="1060.0" y2="249.0" stroke="#1f6feb" stroke-width="2.2"/>
<line x1="967.4" y1="227.0" x2="967.4" y2="249.0" stroke="#1f6feb" stroke-width="1"/>
<text x="24" y="285" font-family="Menlo, Consolas, monospace" font-size="13" fill="#273449">out_ready</text>
<line x1="180" y1="280" x2="1060" y2="280" stroke="#e6ebf2" stroke-width="1"/>
<line x1="180.0" y1="269.0" x2="698.7" y2="269.0" stroke="#1f6feb" stroke-width="2.2"/>
<line x1="180.0" y1="269.0" x2="180.0" y2="291.0" stroke="#1f6feb" stroke-width="1"/>
<line x1="698.7" y1="291.0" x2="874.7" y2="291.0" stroke="#1f6feb" stroke-width="2.2"/>
<line x1="698.7" y1="269.0" x2="698.7" y2="291.0" stroke="#1f6feb" stroke-width="1"/>
<line x1="874.7" y1="269.0" x2="1060.0" y2="269.0" stroke="#1f6feb" stroke-width="2.2"/>
<line x1="874.7" y1="269.0" x2="874.7" y2="291.0" stroke="#1f6feb" stroke-width="1"/>
<text x="24" y="327" font-family="Menlo, Consolas, monospace" font-size="13" fill="#273449">result</text>
<line x1="180" y1="322" x2="1060" y2="322" stroke="#e6ebf2" stroke-width="1"/>
<rect x="180.0" y="311.0" width="416.8" height="22.0" rx="3" fill="#edf4ff" stroke="#7aa7e8"/>
<text x="185.0" y="327.0" font-family="Menlo, Consolas, monospace" font-size="11" fill="#173b67">0x00000000</text>
<rect x="596.8" y="311.0" width="92.6" height="22.0" rx="3" fill="#edf4ff" stroke="#7aa7e8"/>
<text x="601.8" y="327.0" font-family="Menlo, Consolas, monospace" font-size="11" fill="#173b67">0x00000000</text>
<rect x="689.5" y="311.0" width="370.5" height="22.0" rx="3" fill="#edf4ff" stroke="#7aa7e8"/>
<text x="694.5" y="327.0" font-family="Menlo, Consolas, monospace" font-size="11" fill="#173b67">0x0000001C</text>
<text x="24" y="369" font-family="Menlo, Consolas, monospace" font-size="13" fill="#273449">report_assert_failed</text>
<line x1="180" y1="364" x2="1060" y2="364" stroke="#e6ebf2" stroke-width="1"/>
<line x1="180.0" y1="375.0" x2="1060.0" y2="375.0" stroke="#1f6feb" stroke-width="2.2"/>
<line x1="180.0" y1="353.0" x2="180.0" y2="375.0" stroke="#1f6feb" stroke-width="1"/>
<line x1="180.0" y1="36" x2="180.0" y2="407" stroke="#f0f3f8" stroke-width="1"/>
<text x="180.0" y="425" font-family="Arial, sans-serif" font-size="11" fill="#667085" text-anchor="middle">0</text>
<line x1="400.0" y1="36" x2="400.0" y2="407" stroke="#f0f3f8" stroke-width="1"/>
<text x="400.0" y="425" font-family="Arial, sans-serif" font-size="11" fill="#667085" text-anchor="middle">23750</text>
<line x1="620.0" y1="36" x2="620.0" y2="407" stroke="#f0f3f8" stroke-width="1"/>
<text x="620.0" y="425" font-family="Arial, sans-serif" font-size="11" fill="#667085" text-anchor="middle">47500</text>
<line x1="840.0" y1="36" x2="840.0" y2="407" stroke="#f0f3f8" stroke-width="1"/>
<text x="840.0" y="425" font-family="Arial, sans-serif" font-size="11" fill="#667085" text-anchor="middle">71250</text>
<line x1="1060.0" y1="36" x2="1060.0" y2="407" stroke="#f0f3f8" stroke-width="1"/>
<text x="1060.0" y="425" font-family="Arial, sans-serif" font-size="11" fill="#667085" text-anchor="middle">95000</text>
</svg>